<svg xmlns="http://www.w3.org/2000/svg" width="24" height="24">
  <g stroke="#797878" stroke-width="2">
    <path fill="#fff"
      d="m1.01014 16.2648 4.48986-7.34707 4.48986 7.34707c-.00888.1353-.0254.317-.05603.5309-.07188.5018-.21769 1.1536-.50659 1.792-.2879.636-.70431 1.2297-1.30514 1.6649-.59073.4278-1.42086.7474-2.6221.7474-1.20123 0-2.03137-.3196-2.6221-.7474-.60083-.4352-1.01724-1.0289-1.30514-1.6649-.2889-.6384-.43471-1.2902-.50659-1.792-.03063-.2139-.04715-.3956-.05603-.5309z">
    </path>
    <path fill="#fff"
      d="m14.0102 16.2648 4.4899-7.34707 4.4898 7.34707c-.0089.1353-.0254.317-.056.5309-.0719.5018-.2177 1.1537-.5066 1.792-.2879.6361-.7043 1.2298-1.3051 1.6649-.5907.4278-1.4209.7474-2.6221.7474s-2.0314-.3196-2.6221-.7474c-.6009-.4352-1.0173-1.0289-1.3052-1.6649-.2889-.6384-.4347-1.2902-.5066-1.792-.0306-.2139-.0471-.3956-.056-.5309z">
    </path>
    <path d="m3 4h18" stroke-linecap="round"></path>
    <path d="m14 4c0 1.10457-.8954 2-2 2s-2-.89543-2-2 .8954-2 2-2 2 .89543 2 2z" fill="#fff"></path>
  </g>
  <path d="m5.5 22c5.5687 0 5.5-6 5.5-6h-10.99996008s-.06874882 6 5.49996008 6z" fill="#797878"></path>
  <path d="m18.5 22c5.5687 0 5.5-6 5.5-6h-11s-.0687 6 5.5 6z" fill="#797878"></path>
  <circle cx="17" cy="7" fill="#fff" r="7"></circle>
  <path clip-rule="evenodd"
    d="m17 13c3.3137 0 6-2.6863 6-6 0-3.31371-2.6863-6-6-6s-6 2.68629-6 6c0 3.3137 2.6863 6 6 6zm3.7071-7.29289c.3905-.39053.3905-1.02369 0-1.41422-.3905-.39052-1.0237-.39052-1.4142 0l-3.2929 3.2929-1.2929-1.2929c-.3905-.39052-1.0237-.39052-1.4142 0-.3905.39053-.3905 1.02369 0 1.41422l2 2c.3905.39049 1.0237.39049 1.4142 0z"
    fill="#00a046" fill-rule="evenodd"></path>
</svg>