<svg xmlns="http://www.w3.org/2000/svg" width="15" height="13" fill="#D2D2D2">
  <path fill-rule="evenodd" clip-rule="evenodd"
    d="M4.67775 1.43945C2.89882 1.43945 1.45159 2.87459 1.45159 4.63864C1.45159 6.18461 2.56278 7.50891 4.09348 7.78528L4.68936 7.89324V9.59179L7.98374 7.8371H10.3223C12.1012 7.8371 13.5484 6.40197 13.5484 4.63864C13.5484 2.87459 12.1012 1.43945 10.3223 1.43945H4.67775ZM3.23777 12V9.05344C1.32966 8.44455 0 6.67474 0 4.63864C0 2.08073 2.09827 0 4.67775 0H10.3223C12.9017 0 15 2.08073 15 4.63864C15 7.19583 12.9017 9.27656 10.3223 9.27656H8.34882L3.23777 12Z">
  </path>
</svg>