<svg xmlns="http://www.w3.org/2000/svg" height="13" width="13" fill='#D2D2D2'>
 <path d="m5.73433.173217c.10867-.2309559.42269-.2309559.53137 0l1.6246 3.452363c.04311.0917.12659.15527.22303.16998l3.63267.55361c.243.03703.34.35025.1642.53003l-2.62862 2.68729c-.06978.07139-.1017.17425-.08519.275l.62057 3.79451c.04148.2539-.21258.4475-.42991.3276l-3.24916-1.7915c-.08632-.0476-.18944-.0476-.27575 0l-3.24915 1.7915c-.21736.1199-.47141-.0737-.4299-.3276l.62054-3.79451c.01648-.10075-.01538-.20361-.08521-.275l-2.6286226-2.68729c-.1758488-.17978-.0788129-.493.1642076-.53003l3.632665-.55361c.0965-.01471.17992-.07828.22308-.16998z"></path>
</svg>