<svg xmlns="http://www.w3.org/2000/svg" viewBox="10 -5 50 50" fill="#00a046">
  <path fill-rule="evenodd" clip-rule="evenodd"
    d="M30 2C27.7909 2 26 3.79086 26 6V28C26 30.2091 27.7909 32 30 32H32.0709C32.5561 35.3923 35.4735 38 39 38C42.5265 38 45.4439 35.3923 45.9291 32H61H64.0709C64.5561 35.3923 67.4735 38 71 38C74.5265 38 77.4439 35.3923 77.9291 32H78C80.2091 32 82 30.2091 82 28V17.5926L78.6257 9.65316C77.6844 7.43814 75.5105 6 73.1037 6H64.6586C63.8349 3.66962 61.6125 2 59 2H30ZM77.3264 28H78V20H65V27.3924C66.2249 25.3596 68.4537 24 71 24C73.7924 24 76.2029 25.6351 77.3264 28ZM39 24C36.2076 24 33.7971 25.6351 32.6736 28H30V6H59C60.1046 6 61 6.89543 61 8V28H45.3264C44.2029 25.6351 41.7924 24 39 24ZM65 10V16H76.9769L74.9444 11.2177C74.6306 10.4794 73.906 10 73.1037 10H65ZM39 28C37.3431 28 36 29.3431 36 31C36 32.6569 37.3431 34 39 34C40.6569 34 42 32.6569 42 31C42 29.3431 40.6569 28 39 28ZM68 31C68 29.3431 69.3431 28 71 28C72.6569 28 74 29.3431 74 31C74 32.6569 72.6569 34 71 34C69.3431 34 68 32.6569 68 31Z">
  </path>
  <path fill-rule="evenodd" clip-rule="evenodd"
    d="M0 4C0 2.89543 0.89543 2 2 2H22C23.1046 2 24 2.89543 24 4C24 5.10457 23.1046 6 22 6H2C0.89543 6 0 5.10457 0 4Z">
  </path>
  <path fill-rule="evenodd" clip-rule="evenodd"
    d="M4 30C4 28.8954 4.89543 28 6 28H22C23.1046 28 24 28.8954 24 30C24 31.1046 23.1046 32 22 32H6C4.89543 32 4 31.1046 4 30Z">
  </path>
  <path fill-rule="evenodd" clip-rule="evenodd"
    d="M13 13C13 11.8954 13.8954 11 15 11H22C23.1046 11 24 11.8954 24 13C24 14.1046 23.1046 15 22 15H15C13.8954 15 13 14.1046 13 13Z">
  </path>
  <path fill-rule="evenodd" clip-rule="evenodd"
    d="M8 21C8 19.8954 8.89543 19 10 19H22C23.1046 19 24 19.8954 24 21C24 22.1046 23.1046 23 22 23H10C8.89543 23 8 22.1046 8 21Z">
  </path>
</svg>