<svg xmlns="http://www.w3.org/2000/svg" width="24" height="24">
    <path
        d="m7.5 3.5c-1.70736 0-3.1158.67658-4.0819 1.81884-.95072 1.12408-1.4181 2.63045-1.4181 4.23157 0 1.48279.70165 2.90119 1.59923 4.12779.90876 1.2419 2.09904 2.3968 3.2556 3.3734 1.1615.9808 2.31828 1.8062 3.18207 2.3853.4329.2901.7944.5199 1.0491.678.1273.0791.2282.1403.298.1822.0349.021.062.0371.0809.0483l.022.013.0063.0036.5068.2957.5039-.2939.031-.0183-.03.0177.008-.0047.022-.013c.0188-.0111.0458-.0272.0807-.0481.0696-.0418.1703-.1028.2975-.1815.2543-.1575.6154-.3862 1.0478-.6745.8631-.5753 2.0188-1.3936 3.1793-2.3607 1.1553-.9627 2.3449-2.0972 3.2535-3.3088.8949-1.1931 1.6063-2.5784 1.6063-4.0219 0-1.59871-.4656-3.14393-1.4014-4.31112-.9524-1.18781-2.3607-1.93888-4.0986-1.93888-1.1432 0-2.2377.62595-3.0785 1.26152-.5191.39237-1.0029.83608-1.4215 1.26141-.4186-.42533-.9024-.86904-1.4215-1.26141-.84076-.63557-1.93531-1.26152-3.0785-1.26152z"
        fill="orange">
    </path>
</svg>