<svg xmlns="http://www.w3.org/2000/svg" width="24" height="24" fill="#a6a5a5">
    <path fill-rule="evenodd" clip-rule="evenodd"
        d="M5.5 7.15088L11 15.7064V16.0001C11 17.23 10.7256 18.7067 9.87944 19.9053C8.99594 21.1568 7.55968 22.0001 5.5 22.0001C3.44033 22.0001 2.00406 21.1568 1.12056 19.9053C0.27439 18.7067 0 17.23 0 16.0001V15.7064L5.5 7.15088ZM2.08102 17.0001C2.1881 17.6425 2.40512 18.257 2.75444 18.7518C3.24594 19.4481 4.05967 20.0001 5.5 20.0001C6.94033 20.0001 7.75406 19.4481 8.24556 18.7518C8.59488 18.257 8.8119 17.6425 8.91898 17.0001H2.08102ZM8.16833 15.0001H2.83167L5.5 10.8494L8.16833 15.0001Z">
    </path>
    <path fill-rule="evenodd" clip-rule="evenodd"
        d="M18.5 7.15088L24 15.7064V16.0001C24 17.23 23.7256 18.7067 22.8794 19.9053C21.9959 21.1568 20.5597 22.0001 18.5 22.0001C16.4403 22.0001 15.0041 21.1568 14.1206 19.9053C13.2744 18.7067 13 17.23 13 16.0001V15.7064L18.5 7.15088ZM15.081 17.0001C15.1881 17.6425 15.4051 18.257 15.7544 18.7518C16.2459 19.4481 17.0597 20.0001 18.5 20.0001C19.9403 20.0001 20.7541 19.4481 21.2456 18.7518C21.5949 18.257 21.8119 17.6425 21.919 17.0001H15.081ZM21.1683 15.0001H15.8317L18.5 10.8494L21.1683 15.0001Z">
    </path>
    <path
        d="M12 2C12.7403 2 13.3866 2.4022 13.7324 3H21V5H13.7324C13.3866 5.5978 12.7403 6 12 6C11.2597 6 10.6134 5.5978 10.2676 5H3V3H10.2676C10.6134 2.4022 11.2597 2 12 2Z">
    </path>
</svg>